<svg width="16" height="9" viewBox="0 0 16 9" fill="none" xmlns="http://www.w3.org/2000/svg">
<path d="M14.9278 3.53888C14.0368 2.59722 12.9632 1.84716 11.7725 1.33455C10.5818 0.821942 9.29911 0.557556 8.00277 0.557556C6.70643 0.557556 5.42371 0.821942 4.23303 1.33455C3.04234 1.84716 1.96871 2.59722 1.07777 3.53888C0.884613 3.7452 0.777334 4.01737 0.777772 4.29999V7.22221C0.777772 7.5169 0.894835 7.79951 1.10321 8.00789C1.31158 8.21626 1.5942 8.33332 1.88888 8.33332H14.1111C14.4058 8.33332 14.6884 8.21626 14.8968 8.00789C15.1052 7.79951 15.2222 7.5169 15.2222 7.22221V4.29999C15.2242 4.01812 15.1189 3.74605 14.9278 3.53888ZM14.1111 7.22221H1.88888V4.29444C2.67623 3.46537 3.62404 2.80518 4.67464 2.35404C5.72523 1.9029 6.85664 1.67026 8 1.67026C9.14335 1.67026 10.2748 1.9029 11.3254 2.35404C12.3759 2.80518 13.3238 3.46537 14.1111 4.29444V7.22221Z" fill="white"/>
</svg>
