<svg width="16" height="16" viewBox="0 0 16 16" fill="none" xmlns="http://www.w3.org/2000/svg">
<path d="M8.07223 1.80555C9.27564 1.80445 10.4523 2.16029 11.4535 2.82807C12.4546 3.49585 13.2352 4.44555 13.6965 5.55704C14.1577 6.66852 14.279 7.89185 14.0449 9.07227C13.8108 10.2527 13.2319 11.3372 12.3813 12.1885C11.5308 13.0398 10.4468 13.6197 9.26663 13.8549C8.08643 14.0901 6.86299 13.9699 5.75108 13.5097C4.63917 13.0494 3.68876 12.2697 3.02007 11.2692C2.35138 10.2687 1.99445 9.09228 1.99445 7.88888C2.00175 6.27869 2.64425 4.73644 3.78232 3.59733C4.92039 2.45822 6.46205 1.81431 8.07223 1.80555ZM8.07223 0.666656C6.64381 0.666656 5.24747 1.09023 4.05978 1.88382C2.87209 2.67741 1.9464 3.80537 1.39977 5.12505C0.853135 6.44474 0.710111 7.89689 0.988782 9.29786C1.26745 10.6988 1.9553 11.9857 2.96535 12.9958C3.97539 14.0058 5.26227 14.6937 6.66325 14.9723C8.06422 15.251 9.51637 15.108 10.8361 14.5613C12.1557 14.0147 13.2837 13.089 14.0773 11.9013C14.8709 10.7136 15.2945 9.3173 15.2945 7.88888C15.2945 5.97343 14.5335 4.13643 13.1791 2.782C11.8247 1.42757 9.98768 0.666656 8.07223 0.666656Z" fill="white"/>
</svg>
